<?xml version="1.0" encoding="UTF-8"?>
<!DOCTYPE svg PUBLIC "-//W3C//DTD SVG 1.1//EN" "http://www.w3.org/Graphics/SVG/1.1/DTD/svg11.dtd">
<!-- Creator: CorelDRAW 2021 (64-Bit) -->
<svg xmlns="http://www.w3.org/2000/svg" xml:space="preserve" width="208.874mm" height="157.428mm" version="1.1" style="shape-rendering:geometricPrecision; text-rendering:geometricPrecision; image-rendering:optimizeQuality; fill-rule:evenodd; clip-rule:evenodd"
viewBox="0 0 20887.44 15742.8"
 xmlns:xlink="http://www.w3.org/1999/xlink"
 xmlns:xodm="http://www.corel.com/coreldraw/odm/2003">
 <defs>
  <style type="text/css">
   <![CDATA[
    .fil1 {fill:#f5f5f5}
    .fil2 {fill:#BC9B54}
    .fil3 {fill:#BC9B54}
    .fil0 {fill:#f5f5f5;fill-rule:nonzero}
    .fil4 {fill:#BC9B54;fill-rule:nonzero}
   ]]>
  </style>
 </defs>
 <g id="Capa_x0020_1">
  <metadata id="CorelCorpID_0Corel-Layer"/>
  <g id="_2159010480224">
   <polygon class="fil0" points="17852.15,13308.95 17852.15,12032.4 18139.95,12032.4 18139.95,13066.15 18645.1,13066.15 18645.1,13308.95 "/>
   <polygon class="fil0" points="16968.35,13308.95 16968.35,12032.4 17256.15,12032.4 17256.15,13066.15 17761.3,13066.15 17761.3,13308.95 "/>
   <polygon class="fil0" points="16459.4,13308.95 16459.4,12032.4 16747.2,12032.4 16747.2,13308.95 "/>
   <path class="fil0" d="M15641 13332.45c-165.8,0 -292.4,-48.95 -379.85,-146.85 -87.45,-97.9 -131.15,-253.85 -131.15,-467.95l0 -685.25 289.75 0 0 714.65c0,125.3 18.9,212.75 56.8,262.35 37.85,49.6 92.65,74.4 164.45,74.4 71.8,0 127.25,-24.8 166.4,-74.4 39.15,-49.6 58.75,-137.05 58.75,-262.35l0 -714.65 278 0 0 685.25c0,214.1 -42.75,370.05 -128.2,467.95 -85.5,97.9 -210.5,146.85 -374.95,146.85z"/>
   <path class="fil0" d="M14347.85 12008.9c114.85,0 215.7,25.8 302.5,77.35 86.8,51.55 154.65,126.3 203.6,224.15 48.95,97.9 73.45,216.05 73.45,354.4 0,171 -36.55,312.3 -109.65,423.9 -73.1,111.6 -171.65,185 -295.65,220.25 30.05,44.4 70.8,76.35 122.35,95.95 51.6,19.55 104.1,29.35 157.65,29.35 27.4,0 53.15,-2.3 77.3,-6.85 24.15,-4.55 45.4,-9.45 63.65,-14.7l50.9 209.5c-23.5,11.75 -54.5,21.9 -93,30.35 -38.5,8.5 -82.55,12.75 -132.15,12.75 -134.45,0 -248.65,-32.95 -342.65,-98.9 -93.95,-65.9 -163.8,-148.45 -209.5,-247.65 -135.75,-28.75 -244.4,-99.85 -325.95,-213.4 -81.6,-113.6 -122.4,-260.4 -122.4,-440.55 0,-139.65 24.5,-258.1 73.45,-355.35 48.95,-97.25 116.8,-171.65 203.6,-223.2 86.05,-51.1 185.95,-77 299.6,-77.35 0.35,0 3,248.65 2.9,248.65 -87.45,0 -156.65,35.9 -207.55,107.7 -50.9,71.8 -76.35,171.65 -76.35,299.55 0,135.75 25.45,241.8 76.35,318.15 50.9,76.35 120.1,114.55 207.55,114.55 87.45,0 156.65,-38.2 207.55,-114.55 50.9,-76.35 76.35,-182.4 76.35,-318.15 0,-127.9 -25.45,-227.75 -76.35,-299.55 -50.6,-71.4 -119.35,-107.45 -206.1,-107.7 -1,0 -1.9,-248.65 -1.45,-248.65z"/>
   <path class="fil0" d="M12507.4 13308.95l0 -1276.55 295.65 0 332.85 634.35 125.3 281.95 7.85 0c-5.25,-67.9 -12.4,-143.6 -21.55,-227.1 -9.15,-83.55 -13.7,-163.2 -13.7,-238.9l0 -450.3 274.1 0 0 1276.55 -295.65 0 -332.85 -636.3 -125.3 -278.05 -7.85 0c6.55,70.5 14.05,146.2 22.55,227.15 8.45,80.9 12.7,159.2 12.7,234.95l0 452.25 -274.1 0z"/>
   <path class="fil0" d="M11673.95 13332.4l-3.15 -248.6c87.15,0 156.2,-42.2 204.2,-113.55 50.85,-75.7 76.35,-177.55 76.35,-305.45 0,-127.9 -25.45,-227.75 -76.35,-299.55 -50.9,-71.8 -120.1,-107.7 -207.55,-107.7 -87.45,0 -156.65,35.9 -207.55,107.7 -50.9,71.8 -76.35,171.65 -76.35,299.55 0,127.9 25.45,229.75 76.35,305.45 50.9,75.7 120.1,113.55 207.55,113.55l0 248.65c-114.85,0 -215.7,-26.75 -302.5,-80.3 -86.8,-53.5 -154.65,-130.2 -203.6,-230.05 -48.95,-99.85 -73.45,-218.95 -73.45,-357.3 0,-139.65 24.5,-258.1 73.45,-355.35 48.95,-97.25 116.8,-171.65 203.6,-223.2 86.8,-51.55 187.65,-77.35 302.5,-77.35 114.85,0 215.7,25.8 302.5,77.35 86.8,51.55 154.65,126.3 203.6,224.15 48.95,97.9 73.45,216.05 73.45,354.4 0,138.35 -24.5,257.45 -73.45,357.3 -48.95,99.85 -116.8,176.55 -203.6,230.05 -85.15,52.55 -183.9,79.3 -296,80.25z"/>
   <path class="fil0" d="M10316.6 13308.95l-287.8 0 0 -1276.55 460.1 0c90.1,0 172.3,12.05 246.7,36.2 74.4,24.15 133.8,64.95 178.2,122.4 44.35,57.4 66.55,137.05 66.55,238.85 0,94 -20.55,171.3 -61.7,232 -41.1,60.7 -96.25,106.05 -165.4,136.1l289.75 511 -323.05 0 -244.75 -460.1 -152.4 0 0.2 -229.1 142.4 0c75.75,0 133.5,-15.95 173.3,-47.95 39.8,-32 59.7,-79.3 59.7,-141.95 0,-62.65 -19.9,-106.4 -59.7,-131.2 -39.8,-24.8 -97.55,-37.2 -173.3,-37.2l-148.8 0 0 1047.5z"/>
   <polygon class="fil0" points="8958.65,13308.95 8958.65,12032.4 9246.45,12032.4 9246.45,13308.95 "/>
   <polygon class="fil0" points="8099.1,13308.95 8099.1,12275.2 7748.65,12275.2 7748.65,12032.4 8739.35,12032.4 8739.35,12275.2 8388.9,12275.2 8388.9,13308.95 "/>
   <polygon class="fil0" points="6990.9,13308.95 6990.9,12275.2 6640.45,12275.2 6640.45,12032.4 7631.15,12032.4 7631.15,12275.2 7280.7,12275.2 7280.7,13308.95 "/>
   <polygon class="fil0" points="5649.7,13308.95 5649.7,12032.4 6448.55,12032.4 6448.55,12275.2 5937.5,12275.2 5937.5,12531.65 6372.15,12531.65 6372.15,12772.5 5937.5,12772.5 5937.5,13066.15 6468.1,13066.15 6468.1,13308.95 "/>
   <path class="fil0" d="M5073.15 13332.45c-107,0 -205.55,-24.8 -295.65,-74.4 -90.05,-49.6 -162.15,-123.05 -216.35,-220.25 -54.15,-97.25 -81.25,-217 -81.25,-359.3 0,-140.95 27.75,-261.35 83.2,-361.25 55.5,-99.85 129.25,-176.2 221.25,-229.05 92.05,-52.85 191.55,-79.3 298.6,-79.3 82.25,0 156,16.65 221.25,49.95 65.25,33.25 119.4,72.1 162.5,116.5l-152.7 184c-32.65,-30 -66.9,-54.5 -102.8,-73.4 -35.9,-18.95 -76.7,-28.4 -122.4,-28.4 -57.4,0 -109.95,16.3 -157.6,48.95 -47.65,32.65 -85.5,79.65 -113.55,140.95 -28.05,61.35 -42.1,135.1 -42.1,221.25 0,130.55 28.05,232.35 84.2,305.45 56.1,73.1 131.2,109.65 225.15,109.65 52.2,0 98.9,-11.75 140,-35.25 41.1,-23.5 77.35,-51.55 108.65,-84.2l152.7 180.15c-107,125.3 -244.7,187.95 -413.1,187.95z"/>
   <path class="fil0" d="M3986.5 13332.45c-107,0 -205.55,-24.8 -295.65,-74.4 -90.05,-49.6 -162.15,-123.05 -216.35,-220.25 -54.15,-97.25 -81.25,-217 -81.25,-359.3 0,-140.95 27.75,-261.35 83.2,-361.25 55.5,-99.85 129.25,-176.2 221.25,-229.05 92.05,-52.85 191.55,-79.3 298.6,-79.3 82.25,0 156,16.65 221.25,49.95 65.25,33.25 119.4,72.1 162.5,116.5l-152.7 184c-32.65,-30 -66.9,-54.5 -102.8,-73.4 -35.9,-18.95 -76.7,-28.4 -122.4,-28.4 -57.4,0 -109.95,16.3 -157.6,48.95 -47.65,32.65 -85.5,79.65 -113.55,140.95 -28.05,61.35 -42.1,135.1 -42.1,221.25 0,130.55 28.05,232.35 84.2,305.45 56.1,73.1 131.2,109.65 225.15,109.65 52.2,0 98.9,-11.75 140,-35.25 41.1,-23.5 77.35,-51.55 108.65,-84.2l152.7 180.15c-107,125.3 -244.7,187.95 -413.1,187.95z"/>
   <path class="fil0" d="M2635.55 13332.45c-165.8,0 -292.4,-48.95 -379.85,-146.85 -87.45,-97.9 -131.15,-253.85 -131.15,-467.95l0 -685.25 289.75 0 0 714.65c0,125.3 18.9,212.75 56.8,262.35 37.85,49.6 92.65,74.4 164.45,74.4 71.8,0 127.25,-24.8 166.4,-74.4 39.15,-49.6 58.75,-137.05 58.75,-262.35l0 -714.65 278 0 0 685.25c0,214.1 -42.75,370.05 -128.2,467.95 -85.5,97.9 -210.5,146.85 -374.95,146.85z"/>
   <path class="fil0" d="M1283.65 13308.95l-287.8 0 0 -1276.55 438.6 0c93.95,0 179.15,12.75 255.5,38.2 76.35,25.45 137.35,68.2 183.05,128.2 45.7,60.05 68.5,141.65 68.5,244.75 0,99.2 -22.8,180.8 -68.5,244.75 -45.7,63.95 -106.45,111.3 -182.1,141.95 -75.65,30.6 -158.7,46 -248.65,46l-144.3 0 -0.3 -229.05 127 0c156.6,0 234.95,-67.9 234.95,-203.65 0,-66.55 -20.9,-113.55 -62.65,-140.95 -41.8,-27.4 -101.85,-41.15 -180.15,-41.15l-133.15 0 0 1047.5z"/>
   <polygon class="fil1" points="10260.25,1002.6 10260.25,5930 8625.45,7294.45 8621.7,6352.95 9535.05,5590.7 9535.65,2436.85 8201.85,3419 8215.4,10784.9 7460,10784.9 7475.1,3053.55 "/>
   <polygon class="fil2" points="10645.1,10784.9 11395.1,10784.9 11395.1,8637.2 10645.1,7959.15 "/>
   <path class="fil2" d="M10645.1 7396.65l2065.05 1872.4 0 1515.85 750 0 0.05 -1854.9 -1423.2 -1314.25c938.55,-443.65 1381.95,-958 1423.15,-2047.05l0 -2170.8 -2815.05 -2198.6 0 4369.4 750 -631.9 0 -2251.75 1315.05 989.45 0 1894.2c0,665.3 -294.3,1089.95 -1209.35,1491.7l-855.7 -707.45 0 1043.7z"/>
   <polygon class="fil3" points="3798.85,14740.9 3941.8,14740.9 4034.95,14515.6 4367.55,14515.6 4323.55,14400.15 4075.55,14400.15 4202.05,14060.35 4464.2,14740.9 4593.3,14740.9 4254.55,13885.6 4142.9,13886.45 "/>
   <path class="fil0" d="M19310.25 13332.4l-3.15 -248.6c87.15,0 156.2,-42.2 204.2,-113.55 50.85,-75.7 76.35,-177.55 76.35,-305.45 0,-127.9 -25.45,-227.75 -76.35,-299.55 -50.9,-71.8 -120.1,-107.7 -207.55,-107.7 -87.45,0 -156.65,35.9 -207.55,107.7 -50.9,71.8 -76.35,171.65 -76.35,299.55 0,127.9 25.45,229.75 76.35,305.45 50.9,75.7 120.1,113.55 207.55,113.55l0 248.65c-114.85,0 -215.7,-26.75 -302.5,-80.3 -86.8,-53.5 -154.65,-130.2 -203.6,-230.05 -48.95,-99.85 -73.45,-218.95 -73.45,-357.3 0,-139.65 24.5,-258.1 73.45,-355.35 48.95,-97.25 116.8,-171.65 203.6,-223.2 86.8,-51.55 187.65,-77.35 302.5,-77.35 114.85,0 215.7,25.8 302.5,77.35 86.8,51.55 154.65,126.3 203.6,224.15 48.95,97.9 73.45,216.05 73.45,354.4 0,138.35 -24.5,257.45 -73.45,357.3 -48.95,99.85 -116.8,176.55 -203.6,230.05 -85.15,52.55 -183.9,79.3 -296,80.25z"/>
   <polygon class="fil3" points="6948.7,13885.6 6950.3,14001.1 6563.55,14001.1 6561.7,14004.8 6563.55,14267.65 6893.4,14267.65 6893.4,14363.8 6563.55,14363.8 6563.55,14621.6 6948.7,14621.6 6948.75,14740.9 6446.5,14740.9 6446.5,13885.6 "/>
   <polygon class="fil3" points="15687.75,13885.6 15689.35,14001.1 15302.6,14001.1 15300.75,14004.8 15302.6,14267.65 15632.45,14267.65 15632.45,14363.8 15302.6,14363.8 15302.6,14621.6 15687.75,14621.6 15687.8,14740.9 15185.55,14740.9 15185.55,13885.6 "/>
   <polygon class="fil3" points="9461.7,14740.9 9604.65,14740.9 9697.8,14515.6 10030.4,14515.6 9986.4,14400.15 9738.4,14400.15 9864.9,14060.35 10127.05,14740.9 10256.15,14740.9 9917.4,13885.6 9805.75,13886.45 "/>
   <polygon class="fil3" points="11313.75,14740.9 11456.7,14740.9 11549.85,14515.6 11882.45,14515.6 11838.45,14400.15 11590.45,14400.15 11716.95,14060.35 11979.1,14740.9 12108.2,14740.9 11769.45,13885.6 11657.8,13886.45 "/>
   <path class="fil4" d="M8870.11 14564.2l-258.84 -618.55c-30.07,-71.95 -148.52,-82.55 -148.52,19.5l0 732.95c0,28.4 18.64,42.8 55.83,42.8 37.2,0 55.84,-14.35 55.84,-42.8l0 -579.5 224.16 585.4c8.33,21.6 52.11,25.9 71.53,25.9 19.42,0 55.4,-4.15 63.1,-25.9l206.92 -585.4 0 579.5c0,28.45 18.64,42.8 55.84,42.8 37.19,0 55.83,-14.4 55.83,-42.8l0 -732.95c0,-102.1 -121.06,-92.35 -148.52,-19.5l-233.17 618.55z"/>
   <path class="fil4" d="M14466.86 14564.2l-258.84 -618.55c-30.07,-71.95 -148.52,-82.55 -148.52,19.5l0 732.95c0,28.4 18.64,42.8 55.83,42.8 37.2,0 55.84,-14.35 55.84,-42.8l0 -579.5 224.16 585.4c8.33,21.6 52.11,25.9 71.53,25.9 19.42,0 55.4,-4.15 63.1,-25.9l206.92 -585.4 0 579.5c0,28.45 18.64,42.8 55.84,42.8 37.19,0 55.83,-14.4 55.83,-42.8l0 -732.95c0,-102.1 -121.06,-92.35 -148.52,-19.5l-233.17 618.55z"/>
   <polygon class="fil3" points="13740.75,13885.6 13742.35,14001.1 13355.6,14001.1 13353.75,14004.8 13355.6,14267.65 13685.45,14267.65 13685.45,14363.8 13355.6,14363.8 13355.6,14621.6 13740.75,14621.6 13740.8,14740.9 13238.55,14740.9 13238.55,13885.6 "/>
   <path class="fil4" d="M7164.65 13928.55c0,37.05 15.4,59.5 47.6,59.5l219.55 0 0 708.05c0,28.6 13.9,42.7 50.25,42.7 35.95,0 49.9,-14 49.9,-42.7l0 -708.05 221.6 0c31.9,0 47.15,-13.95 47.15,-59.5 0,-28.6 -17.8,-42.9 -47.15,-42.9l-541.3 0c-29.75,0 -47.6,5.85 -47.6,42.9z"/>
   <path class="fil4" d="M10981 14532.95l0 -604.65c0,-28.5 17.15,-42.65 51.35,-42.65 48.35,0 72.65,14.2 72.65,42.65l0 769.75c0,28.45 -24.3,42.85 -72.9,42.85 -20.9,0 -35.9,-7.2 -45.35,-21.35l-410.7 -626.55 0 605.05c0,28.5 -17.1,42.85 -51.35,42.85 -45.75,0 -68.7,-14.35 -68.7,-42.85l0 -769.75c0,-28.5 22.95,-42.65 68.45,-42.65 20.25,0 35.9,8.4 47.3,25.3l409.25 622z"/>
   <path class="fil4" d="M12889.8 14701.7c-75.7,37.6 -122.1,39.2 -213,39.2 -116.95,0 -211.55,-37.8 -283.85,-113.2 -72.3,-75.45 -130.35,-175.35 -130.35,-299.7 0,-126.9 48.6,-231.15 128.85,-312.55 80.25,-81.4 195.35,-129.85 318.55,-129.85 89.2,0 101.15,11.6 166,36.2 39.8,19.1 64.85,33.5 58.1,73.1 -7.85,45.9 -50.55,83.2 -94.5,38 -42.15,-31.8 -59.95,-40.35 -133.25,-45.3 -91.55,-6.2 -161.35,24.4 -220.1,87.6 -58.7,63.2 -101.15,145.25 -101.15,246 0,103.65 49.5,185.3 103.85,244.4 54.45,59.25 106.45,82.4 199.95,82.4 40.4,0 76.5,-4.35 110.85,-16.45 16.35,-5.75 27.5,-22.55 27.7,-42.9l0 -174.25c1.05,-24.75 -15,-28.25 -28.25,-28l-123.6 0c-55.95,-1.4 -52.6,-84.65 0,-86.9l226.95 0c40.45,2.6 50.85,29.35 48.75,47.8l0 235.15c0,35.15 -30.4,103.8 -61.5,119.25z"/>
   <path class="fil4" d="M16511.35 14532.95l0 -604.65c0,-28.5 17.15,-42.65 51.35,-42.65 48.35,0 72.65,14.2 72.65,42.65l0 769.75c0,28.45 -24.3,42.85 -72.9,42.85 -20.9,0 -35.9,-7.2 -45.35,-21.35l-410.7 -626.55 0 605.05c0,28.5 -17.1,42.85 -51.35,42.85 -45.75,0 -68.7,-14.35 -68.7,-42.85l0 -769.75c0,-28.5 22.95,-42.65 68.45,-42.65 20.25,0 35.9,8.4 47.3,25.3l409.25 622z"/>
   <path class="fil4" d="M16897.45 13928.55c0,37.05 15.4,59.5 47.6,59.5l219.55 0 0 708.05c0,28.6 13.9,42.7 50.25,42.7 35.95,0 49.9,-14 49.9,-42.7l0 -708.05 221.6 0c31.9,0 47.15,-13.95 47.15,-59.5 0,-28.6 -17.8,-42.9 -47.15,-42.9l-541.3 0c-29.75,0 -47.6,5.85 -47.6,42.9z"/>
   <path class="fil4" d="M5338.59 14528.93c1.64,58.04 -33.51,120.77 -78.28,162.28 -102.61,95.12 -333.96,52.04 -430.12,-29.62 -12.47,-10.58 -25.04,-29.23 -25.04,-43.03 0,-17.79 3.88,-36.28 12.9,-46.15 9.02,-9.87 19.74,-14.76 32.37,-14.76 7.27,0 16.4,2.77 26.34,9.17 26.96,17.28 52.27,52.85 116.34,62.87 31.21,4.89 76.04,14.31 122.5,9.68 149.25,-14.97 142.68,-184.55 48.66,-231.05 -144.38,-71.45 -346.64,-132.11 -346.64,-304.16 0,-113.06 92.33,-218.56 215.87,-218.56 108.25,0 190.79,22.17 247.81,53.21 17.99,9.87 27.22,22.72 27.22,38.74 0,14.76 -4.53,27.26 -13.72,37.74 -9.02,10.78 -19.73,16.07 -32.36,16.07 -4.54,0 -11.59,-1.71 -19.3,-5.85 -115.07,-62.57 -276.56,-64.03 -314.11,22.27 -105.67,242.19 400.65,168.93 409.56,481.15z"/>
   <path class="fil4" d="M6131.94 14528.93c1.64,58.04 -33.51,120.77 -78.28,162.28 -102.61,95.12 -333.96,52.04 -430.12,-29.62 -12.47,-10.58 -25.04,-29.23 -25.04,-43.03 0,-17.79 3.88,-36.28 12.9,-46.15 9.02,-9.87 19.74,-14.76 32.37,-14.76 7.27,0 16.4,2.77 26.34,9.17 26.96,17.28 52.27,52.85 116.34,62.87 31.21,4.89 76.04,14.31 122.5,9.68 149.25,-14.97 142.68,-184.55 48.66,-231.05 -144.38,-71.45 -346.64,-132.11 -346.64,-304.16 0,-113.06 92.33,-218.56 215.87,-218.56 108.25,0 190.79,22.17 247.81,53.21 17.99,9.87 27.22,22.72 27.22,38.74 0,14.76 -4.53,27.26 -13.72,37.74 -9.02,10.78 -19.73,16.07 -32.36,16.07 -4.54,0 -11.59,-1.71 -19.3,-5.85 -115.07,-62.57 -276.56,-64.03 -314.11,22.27 -105.67,242.19 400.65,168.93 409.56,481.15z"/>
  </g>
 </g>
</svg>
